<?xml version="1.0" encoding="utf-8"?>
<?xml-stylesheet type="text/css" href="../css/logo.css"?>
<!-- Generator: Adobe Illustrator 21.1.0, SVG Export Plug-In . SVG Version: 6.00 Build 0)  -->
<svg version="1.1" id="Layer_1" xmlns="http://www.w3.org/2000/svg" xmlns:xlink="http://www.w3.org/1999/xlink" x="0px" y="0px"
	 viewBox="0 0 178 237" style="enable-background:new 0 0 178 237;" xml:space="preserve">
<style>
	.star {fill:#ffffff;}
</style>

<g>
	<g class="star">
		<polygon class="st0" points="92.5,127 50.7,149 58.7,102.5 24.9,69.5 71.6,62.8 92.5,20.4 113.4,62.8 160.1,69.5 126.3,102.5 
			134.3,149 		"/>
		<path d="M92.5,21.6l20.3,41.2l0.2,0.5l0.5,0.1l45.4,6.6l-32.9,32.1l-0.4,0.4l0.1,0.5l7.8,45.3L93,126.7l-0.5-0.2l-0.5,0.2
			l-40.6,21.4l7.8-45.3l0.1-0.5l-0.4-0.4L26,69.9l45.4-6.6l0.5-0.1l0.2-0.5L92.5,21.6 M92.5,19.3l-21.2,43l-47.4,6.9l34.3,33.5
			l-8.1,47.3l42.4-22.3l42.4,22.3l-8.1-47.3l34.3-33.5l-47.4-6.9L92.5,19.3L92.5,19.3z"/>
	</g>
	
</g>
</svg>
